# xmcd
#
# Track frame offsets: 
#        150
#        13914
#        31732
#        47787
#        62942
#        83993
#        101951
#        115199
#        136127
#        156833
#        172084
#        187320
#        206976
#        224612
#        243606
#        261228
#        282702
#        300651
#        314836
#        334096
#
# Disc length: 4740 seconds
#
# Revision: 0
# Processed by: cddbd v1.5.2PL0 Copyright (c) Steve Scherf et al.
# Submitted via: ExactAudioCopy v0.99pb5
#
DISCID=49128214
DTITLE=Omarion - The King of Dance Omarion Best O1
DYEAR=2009
DGENRE=R&B
TTITLE0=Just Can't Let You Go
TTITLE1=I Wish
TTITLE2=Never Gonna Let You Go (She's A Keepa) (feat.Big Boi)
TTITLE3=Touch
TTITLE4=O
TTITLE5=Why I Love You
TTITLE6=Girl Friend (Pied Piper Remix)
TTITLE7=Bump Bump Bump (B2K and P.Diddy)
TTITLE8=Coqui (feat.Wyclef Jean)
TTITLE9=Cut Off Time (feat.Kat Deluna)
TTITLE10=Take It Off (feat.Mila J)
TTITLE11=I'm Tryna
TTITLE12=Entourage
TTITLE13=Obsession
TTITLE14=Do It
TTITLE15=Made for TV
TTITLE16=Midnight
TTITLE17=Hey Baby
TTITLE18=Ice Box
TTITLE19=Girlfriend
EXTD=
EXTT0=
EXTT1=
EXTT2=
EXTT3=
EXTT4=
EXTT5=
EXTT6=
EXTT7=
EXTT8=
EXTT9=
EXTT10=
EXTT11=
EXTT12=
EXTT13=
EXTT14=
EXTT15=
EXTT16=
EXTT17=
EXTT18=
EXTT19=
PLAYORDER=
